<svg data-v-423bf9ae="" xmlns="http://www.w3.org/2000/svg" viewBox="0 0 376 90" class="iconLeft"><!----><!----><!----><g data-v-423bf9ae="" id="88715304-edbf-4de8-af3d-473ed2240ea9" fill="#ffffff" transform="matrix(5.371530849613673,0,0,5.371530849613673,105.27305420430378,0.5505802766662811)"><path d="M2.07 13.69Q1.50 13.69 1.19 13.38Q0.88 13.08 0.88 12.50L0.88 12.50L0.88 4.31Q0.88 3.74 1.19 3.43Q1.50 3.12 2.07 3.12L2.07 3.12L7.22 3.12Q7.67 3.12 7.99 3.44Q8.30 3.77 8.30 4.21L8.30 4.21Q8.30 4.65 7.99 4.97Q7.67 5.29 7.22 5.29L7.22 5.29L3.54 5.29L3.54 7.35L6.58 7.35Q7.01 7.35 7.32 7.66Q7.63 7.97 7.63 8.40L7.63 8.40Q7.63 8.83 7.32 9.15Q7.01 9.46 6.58 9.46L6.58 9.46L3.54 9.46L3.54 11.52L7.50 11.52Q7.95 11.52 8.27 11.84Q8.58 12.15 8.58 12.60L8.58 12.60Q8.58 13.05 8.27 13.37Q7.95 13.69 7.50 13.69L7.50 13.69L2.07 13.69ZM10.33 10.51Q9.90 10.51 9.60 10.21Q9.30 9.90 9.30 9.46L9.30 9.46Q9.30 9.03 9.60 8.73Q9.90 8.43 10.33 8.43L10.33 8.43L13.34 8.43Q13.78 8.43 14.08 8.73Q14.38 9.03 14.38 9.46L14.38 9.46Q14.38 9.90 14.08 10.21Q13.78 10.51 13.34 10.51L13.34 10.51L10.33 10.51ZM18.54 13.86Q17.19 13.86 16.63 13.20Q16.07 12.53 16.09 11.13L16.09 11.13L16.10 7.78L15.71 7.78Q15.36 7.78 15.11 7.53Q14.85 7.28 14.85 6.93L14.85 6.93Q14.85 6.57 15.11 6.31Q15.36 6.06 15.71 6.06L15.71 6.06L16.18 6.06L16.24 5.03Q16.27 4.56 16.61 4.23Q16.95 3.91 17.43 3.91L17.43 3.91Q17.92 3.91 18.27 4.26Q18.62 4.61 18.62 5.10L18.62 5.10L18.62 6.06L19.45 6.06Q19.80 6.06 20.05 6.31Q20.30 6.57 20.30 6.92L20.30 6.92Q20.30 7.28 20.05 7.53Q19.80 7.78 19.45 7.78L19.45 7.78L18.68 7.78L18.68 10.91Q18.68 11.48 18.92 11.72Q19.17 11.96 19.67 11.96L19.67 11.96Q19.99 12.03 20.22 12.29Q20.44 12.54 20.44 12.89L20.44 12.89Q20.44 13.19 20.28 13.42Q20.12 13.65 19.87 13.76L19.87 13.76Q19.31 13.86 18.54 13.86L18.54 13.86ZM22.61 13.80Q22.08 13.80 21.69 13.42Q21.31 13.03 21.31 12.50L21.31 12.50L21.31 3.99Q21.31 3.46 21.69 3.07Q22.08 2.69 22.61 2.69L22.61 2.69Q23.14 2.69 23.53 3.07Q23.91 3.46 23.91 3.99L23.91 3.99L23.91 7.22Q24.21 6.64 24.77 6.26Q25.33 5.89 26.19 5.89L26.19 5.89Q27.59 5.89 28.24 6.68Q28.88 7.48 28.88 8.86L28.88 8.86L28.88 12.50Q28.88 13.03 28.50 13.42Q28.11 13.80 27.58 13.80L27.58 13.80Q27.05 13.80 26.66 13.42Q26.28 13.03 26.28 12.50L26.28 12.50L26.28 9.27Q26.28 8.48 25.94 8.18Q25.61 7.87 25.17 7.87L25.17 7.87Q24.65 7.87 24.28 8.24Q23.91 8.61 23.91 9.59L23.91 9.59L23.91 12.50Q23.91 13.03 23.53 13.42Q23.14 13.80 22.61 13.80L22.61 13.80ZM31.40 13.80Q30.87 13.80 30.48 13.42Q30.10 13.03 30.10 12.50L30.10 12.50L30.10 7.15Q30.10 6.66 30.46 6.31Q30.81 5.95 31.30 5.95L31.30 5.95Q31.81 5.95 32.16 6.31Q32.52 6.66 32.52 7.15L32.52 7.15L32.52 7.49L32.58 7.49Q32.75 7.07 33.01 6.74Q33.26 6.41 33.52 6.27L33.52 6.27Q33.75 6.15 34.06 6.15L34.06 6.15Q34.69 6.15 34.99 6.50Q35.28 6.86 35.28 7.28L35.28 7.28Q35.28 7.71 34.98 8.05Q34.68 8.39 34.19 8.39L34.19 8.39Q33.89 8.39 33.59 8.51Q33.29 8.64 33.08 8.89L33.08 8.89Q32.70 9.35 32.70 10.21L32.70 10.21L32.70 12.50Q32.70 13.03 32.32 13.42Q31.93 13.80 31.40 13.80L31.40 13.80ZM36.92 4.98Q36.47 4.98 36.15 4.66Q35.83 4.34 35.83 3.89L35.83 3.89Q35.83 3.44 36.15 3.12Q36.47 2.80 36.92 2.80L36.92 2.80L37.56 2.80Q38.01 2.80 38.33 3.12Q38.65 3.44 38.65 3.89L38.65 3.89Q38.65 4.34 38.33 4.66Q38.01 4.98 37.56 4.98L37.56 4.98L36.92 4.98ZM37.24 13.80Q36.71 13.80 36.32 13.42Q35.94 13.03 35.94 12.50L35.94 12.50L35.94 7.25Q35.94 6.72 36.32 6.33Q36.71 5.95 37.24 5.95L37.24 5.95Q37.77 5.95 38.16 6.33Q38.54 6.72 38.54 7.25L38.54 7.25L38.54 12.50Q38.54 13.03 38.16 13.42Q37.77 13.80 37.24 13.80L37.24 13.80ZM41.73 13.80Q41.20 13.80 40.82 13.42Q40.43 13.03 40.43 12.50L40.43 12.50L40.43 7.78L40.04 7.78Q39.69 7.78 39.44 7.53Q39.19 7.28 39.19 6.92L39.19 6.92Q39.19 6.57 39.44 6.31Q39.69 6.06 40.04 6.06L40.04 6.06L40.43 6.06L40.43 5.82Q40.43 4.24 41.17 3.48Q41.92 2.72 43.60 2.72L43.60 2.72Q44.17 2.72 44.50 2.93Q44.83 3.15 44.83 3.70L44.83 3.70Q44.83 4.10 44.62 4.42Q44.41 4.73 44.03 4.73L44.03 4.73Q43.48 4.73 43.26 4.95Q43.04 5.17 43.04 5.74L43.04 5.74L43.04 6.06L43.81 6.06Q44.16 6.06 44.41 6.31Q44.66 6.57 44.66 6.92L44.66 6.92Q44.66 7.28 44.41 7.53Q44.16 7.78 43.81 7.78L43.81 7.78L43.04 7.78L43.04 12.50Q43.04 13.03 42.65 13.42Q42.27 13.80 41.73 13.80L41.73 13.80ZM48.31 13.86Q46.97 13.86 46.41 13.20Q45.85 12.53 45.86 11.13L45.86 11.13L45.88 7.78L45.49 7.78Q45.14 7.78 44.88 7.53Q44.63 7.28 44.63 6.93L44.63 6.93Q44.63 6.57 44.88 6.31Q45.14 6.06 45.49 6.06L45.49 6.06L45.96 6.06L46.02 5.03Q46.05 4.56 46.39 4.23Q46.73 3.91 47.21 3.91L47.21 3.91Q47.70 3.91 48.05 4.26Q48.40 4.61 48.40 5.10L48.40 5.10L48.40 6.06L49.22 6.06Q49.57 6.06 49.83 6.31Q50.08 6.57 50.08 6.92L50.08 6.92Q50.08 7.28 49.83 7.53Q49.57 7.78 49.22 7.78L49.22 7.78L48.45 7.78L48.45 10.91Q48.45 11.48 48.70 11.72Q48.94 11.96 49.45 11.96L49.45 11.96Q49.77 12.03 49.99 12.29Q50.22 12.54 50.22 12.89L50.22 12.89Q50.22 13.19 50.06 13.42Q49.90 13.65 49.64 13.76L49.64 13.76Q49.08 13.86 48.31 13.86L48.31 13.86Z"></path></g><!----><g data-v-423bf9ae="" id="2287d9e3-228c-4f60-9057-94e88ab058d7" transform="matrix(2.8125,0,0,2.8125,0,0)" stroke="none" fill="#010033"><path d="M16 32c8.837 0 16-7.163 16-16S24.837 0 16 0 0 7.163 0 16s7.163 16 16 16zM14.817 6.421h2v8.886h8.887v2H14.817V6.421zm-5.959.437h2v14.283h14.283v2H8.858V6.858z"></path></g><!----></svg>